<?xml version="1.0" encoding="UTF-8" standalone="no"?>
<!-- Created with Inkscape (http://www.inkscape.org/) -->
<svg
   xmlns:dc="http://purl.org/dc/elements/1.1/"
   xmlns:cc="http://web.resource.org/cc/"
   xmlns:rdf="http://www.w3.org/1999/02/22-rdf-syntax-ns#"
   xmlns:svg="http://www.w3.org/2000/svg"
   xmlns="http://www.w3.org/2000/svg"
   xmlns:sodipodi="http://sodipodi.sourceforge.net/DTD/sodipodi-0.dtd"
   xmlns:inkscape="http://www.inkscape.org/namespaces/inkscape"
   width="50"
   height="50"
   id="svg2"
   sodipodi:version="0.32"
   inkscape:version="0.45.1"
   version="1.0"
   sodipodi:docbase="/Users/dan/dev/ScanVox/Graphics"
   sodipodi:docname="ic_scanvox1.svg"
   inkscape:output_extension="org.inkscape.output.svg.inkscape"
   inkscape:export-filename="/Users/dan/dev/ScanVox/res/drawable/ic_scanvox1.png"
   inkscape:export-xdpi="86.400002"
   inkscape:export-ydpi="86.400002">
  <defs
     id="defs4">
    <marker
       inkscape:stockid="Arrow2Lend"
       orient="auto"
       refY="0"
       refX="0"
       id="Arrow2Lend"
       style="overflow:visible">
      <path
         id="path17071"
         style="font-size:12px;fill-rule:evenodd;stroke-width:0.625;stroke-linejoin:round"
         d="M 8.7185878,4.0337352 L -2.2072895,0.016013256 L 8.7185884,-4.0017078 C 6.97309,-1.6296469 6.9831476,1.6157441 8.7185878,4.0337352 z "
         transform="matrix(-1.1,0,0,-1.1,-1.1,0)" />
    </marker>
    <filter
       inkscape:collect="always"
       id="filter5300">
      <feGaussianBlur
         inkscape:collect="always"
         stdDeviation="0.23087727"
         id="feGaussianBlur5302" />
    </filter>
  </defs>
  <sodipodi:namedview
     id="base"
     pagecolor="#ffffff"
     bordercolor="#666666"
     borderopacity="1.0"
     gridtolerance="10000"
     guidetolerance="10"
     objecttolerance="10"
     inkscape:pageopacity="0.0"
     inkscape:pageshadow="2"
     inkscape:zoom="6.07"
     inkscape:cx="25"
     inkscape:cy="25"
     inkscape:document-units="px"
     inkscape:current-layer="layer2"
     width="50px"
     height="50px"
     showgrid="false"
     inkscape:grid-points="true"
     inkscape:window-width="1201"
     inkscape:window-height="810"
     inkscape:window-x="7"
     inkscape:window-y="22" />
  <metadata
     id="metadata7">
    <rdf:RDF>
      <cc:Work
         rdf:about="">
        <dc:format>image/svg+xml</dc:format>
        <dc:type
           rdf:resource="http://purl.org/dc/dcmitype/StillImage" />
      </cc:Work>
    </rdf:RDF>
  </metadata>
  <g
     inkscape:label="Layer 1"
     inkscape:groupmode="layer"
     id="layer1"
     transform="translate(-313.4374,-227.86949)" />
  <g
     inkscape:groupmode="layer"
     id="layer2"
     inkscape:label="soundobjs"
     transform="translate(-313.4374,-227.86949)">
    <path
       sodipodi:nodetypes="cccc"
       id="path5304"
       d="M 358.4374,238.86949 C 355.4374,233.86949 352.94148,233 346.65802,233 L 329.34198,233 C 323.05852,233 321.4374,234.86949 318.4374,238.86949"
       style="color:#000000;fill:none;fill-opacity:0.1375;fill-rule:evenodd;stroke:#000000;stroke-width:2;stroke-linecap:butt;stroke-linejoin:round;marker:none;marker-start:none;marker-mid:none;marker-end:none;stroke-miterlimit:4;stroke-dasharray:none;stroke-dashoffset:0;stroke-opacity:0.30000001;visibility:visible;display:inline;overflow:visible;filter:url(#filter5300);enable-background:accumulate"
       transform="matrix(1,0,0,-1,0,505.4774)" />
    <rect
       ry="11.341984"
       y="229.84218"
       x="-361.32245"
       height="46.027313"
       width="45.872185"
       id="rect6109"
       style="opacity:1;color:#000000;fill:#000000;fill-opacity:0.34375;fill-rule:evenodd;stroke:#000000;stroke-width:0.69338697;stroke-linecap:butt;stroke-linejoin:round;marker:none;marker-start:none;marker-mid:none;marker-end:none;stroke-miterlimit:4;stroke-dasharray:none;stroke-dashoffset:0;stroke-opacity:1;visibility:visible;display:inline;overflow:visible;enable-background:accumulate"
       transform="scale(-1,1)" />
    <path
       id="path6111"
       style="color:#000000;fill:#54c600;fill-opacity:1;fill-rule:evenodd;stroke:#000000;stroke-width:0.65540284;stroke-linecap:butt;stroke-linejoin:round;marker:none;marker-start:none;marker-mid:none;marker-end:none;stroke-miterlimit:4;stroke-dashoffset:0;stroke-opacity:1;visibility:visible;display:inline;overflow:visible;enable-background:accumulate"
       d="M 315.4374,253.86949 C 325.33823,254.41804 315.09683,245.81697 326.39531,245.81697 C 328.13354,245.81697 328.65538,243.89551 328.65538,241.14971 C 328.65538,212.25654 331.60999,266.47277 331.60999,237.5796 C 331.60999,228.42697 336.82468,236.66433 336.82468,245.81697 C 336.82468,248.56277 340.30114,245.81697 342.03936,245.81697 C 344.54425,245.81697 341.81662,243.53324 347.25405,237.5796 C 349.844,234.74376 352.53259,244.53885 354.18897,242.57645 C 355.10696,241.4889 354.73363,246.29292 355.54502,247.57463 C 357.71099,250.99611 357.31511,252.35166 360.96919,254.00084 M 315.4374,253.86949 C 325.86677,253.86949 314.82902,261.34309 326.1275,261.34309 C 327.86573,261.34309 328.38758,263.26455 328.38758,266.01035 C 328.38758,294.90353 331.34218,240.68729 331.34218,269.58046 C 331.34218,278.73309 336.55688,270.49573 336.55688,261.34309 C 336.55688,258.59729 340.03333,261.34309 341.77155,261.34309 C 344.27644,261.34309 341.54881,263.62681 346.98624,269.58046 C 349.57619,272.4163 352.26478,262.62121 353.92116,264.58361 C 354.83915,265.67116 354.46581,260.86713 355.27721,259.58543 C 357.44318,256.16395 356.7833,255.51868 360.4374,253.86949"
       sodipodi:nodetypes="cssssssssscsssssssss" />
    <path
       style="color:#000000;fill:none;fill-opacity:0.1375;fill-rule:evenodd;stroke:#ffffff;stroke-width:2;stroke-linecap:butt;stroke-linejoin:round;stroke-miterlimit:4;stroke-dashoffset:0;stroke-opacity:0.61250001;marker:none;marker-start:none;marker-mid:none;marker-end:none;visibility:visible;display:inline;overflow:visible;enable-background:accumulate;stroke-dasharray:none;filter:url(#filter5300)"
       d="M 358.4374,238.86949 C 355.4374,233.86949 352.94148,233 346.65802,233 L 329.34198,233 C 323.05852,233 321.4374,234.86949 318.4374,238.86949"
       id="rect3317"
       sodipodi:nodetypes="cccc" />
  </g>
  <g
     inkscape:groupmode="layer"
     id="layer3"
     inkscape:label="playback cursor"
     transform="translate(-313.4374,-227.86949)" />
</svg>
